<?xml version="1.0" encoding="utf-8"?>
<!-- Generator: Adobe Illustrator 24.0.2, SVG Export Plug-In . SVG Version: 6.00 Build 0)  -->
<svg version="1.1" id="Layer_1" xmlns="http://www.w3.org/2000/svg" xmlns:xlink="http://www.w3.org/1999/xlink" x="0px" y="0px"
	 viewBox="0 0 349.04 91.3" style="enable-background:new 0 0 349.04 91.3;" xml:space="preserve">
<style type="text/css">
	.st0{fill:#834BFF;}
</style>
<g>
	<path class="st0" d="M13.34,46.06c0-3.28,0.62-6.36,1.87-9.24c1.25-2.89,2.95-5.41,5.11-7.56c2.16-2.16,4.68-3.86,7.57-5.11
		c2.89-1.25,5.97-1.87,9.24-1.87s6.36,0.62,9.24,1.87c2.89,1.25,5.4,2.95,7.54,5.11c2.14,2.16,3.83,4.68,5.06,7.57
		c1.23,2.89,1.85,5.97,1.85,9.25s-0.62,6.36-1.85,9.25c-1.23,2.89-2.92,5.41-5.06,7.55c-2.14,2.14-4.65,3.84-7.53,5.09
		c-2.88,1.25-5.96,1.88-9.23,1.88c-2.95,0-5.7-0.48-8.26-1.45c-2.56-0.96-4.88-2.33-6.95-4.1V76.6c0,1.23-0.38,2.28-1.15,3.16
		c-0.77,0.87-1.78,1.31-3.05,1.31c-1.21,0-2.24-0.43-3.1-1.29c-0.86-0.86-1.29-1.92-1.29-3.19V46.06z M21.99,46.09
		c0,2.07,0.4,4.03,1.19,5.86c0.79,1.83,1.87,3.43,3.23,4.81c1.36,1.38,2.96,2.46,4.8,3.26c1.84,0.79,3.82,1.19,5.92,1.19
		c2.1,0,4.08-0.4,5.92-1.19c1.84-0.79,3.44-1.88,4.8-3.26c1.36-1.38,2.43-2.98,3.2-4.81c0.78-1.83,1.17-3.78,1.17-5.86
		c0-2.07-0.39-4.03-1.17-5.86c-0.78-1.83-1.84-3.43-3.2-4.79c-1.36-1.36-2.96-2.44-4.8-3.23c-1.84-0.79-3.82-1.19-5.92-1.19
		c-2.1,0-4.08,0.4-5.92,1.19c-1.84,0.79-3.45,1.87-4.8,3.23s-2.43,2.96-3.23,4.79C22.38,42.06,21.99,44.02,21.99,46.09z"/>
	<path class="st0" d="M67.23,47.16c0-3.4,0.65-6.61,1.96-9.62c1.3-3.01,3.08-5.65,5.32-7.9c2.25-2.25,4.87-4.03,7.86-5.35
		c3-1.31,6.2-1.97,9.6-1.97h0.24c1.46,0,2.57,0.41,3.33,1.22c0.76,0.81,1.14,1.83,1.14,3.06c0,1.23-0.44,2.25-1.31,3.06
		c-0.87,0.81-1.93,1.22-3.16,1.22h-0.24c-2.2,0-4.28,0.43-6.22,1.29c-1.94,0.86-3.65,2.03-5.13,3.5c-1.48,1.47-2.64,3.2-3.5,5.18
		c-0.86,1.98-1.29,4.08-1.29,6.32v17.79c0,1.23-0.4,2.25-1.2,3.06c-0.8,0.81-1.78,1.22-2.96,1.22c-0.59,0-1.15-0.1-1.69-0.32
		c-0.54-0.21-1.01-0.51-1.42-0.9c-0.41-0.39-0.73-0.84-0.98-1.36c-0.24-0.52-0.37-1.09-0.37-1.7V47.16z"/>
	<path class="st0" d="M160.35,49.64V65c0,1.2-0.42,2.2-1.25,3.01c-0.83,0.81-1.83,1.22-3.01,1.22c-1.21,0-2.23-0.41-3.08-1.22
		c-0.85-0.81-1.27-1.81-1.27-3.01V14.76c0-0.58,0.11-1.13,0.34-1.65c0.23-0.52,0.55-0.96,0.95-1.34c0.41-0.37,0.87-0.67,1.39-0.9
		c0.52-0.23,1.08-0.34,1.66-0.34c1.24,0,2.27,0.41,3.08,1.24c0.81,0.83,1.22,1.82,1.22,2.99l-0.05,25.11l16.91-15.7
		c0.42-0.39,0.88-0.67,1.38-0.85c0.5-0.18,1.01-0.27,1.53-0.27c0.58,0,1.13,0.11,1.65,0.34c0.52,0.23,0.97,0.53,1.36,0.92
		c0.39,0.39,0.71,0.84,0.95,1.36c0.24,0.52,0.36,1.07,0.36,1.65c0,1.2-0.45,2.22-1.36,3.06l-15.5,14.39l18.27,17.16
		c0.78,0.75,1.17,1.69,1.17,2.82c0,0.58-0.11,1.14-0.34,1.68c-0.23,0.53-0.53,1-0.92,1.38s-0.83,0.71-1.34,0.95
		c-0.5,0.24-1.04,0.36-1.63,0.36c-0.55,0-1.11-0.1-1.68-0.32c-0.57-0.21-1.08-0.54-1.53-1L160.35,49.64z"/>
	<path class="st0" d="M214.64,69.81c-3.27,0-6.33-0.62-9.18-1.87c-2.85-1.25-5.34-2.94-7.46-5.08c-2.12-2.14-3.8-4.65-5.03-7.54
		s-1.85-5.97-1.85-9.24s0.62-6.36,1.85-9.24c1.23-2.89,2.91-5.41,5.04-7.56c2.12-2.16,4.61-3.86,7.47-5.11
		c2.85-1.25,5.92-1.87,9.2-1.87s6.33,0.62,9.17,1.85c2.84,1.23,5.31,2.91,7.42,5.03c2.11,2.12,3.78,4.61,5.01,7.47
		c1.23,2.85,1.88,5.9,1.95,9.15v0.29v19.07c0,1.23-0.42,2.28-1.27,3.14c-0.85,0.86-1.89,1.29-3.13,1.29c-1.24,0-2.25-0.43-3.03-1.3
		c-0.78-0.86-1.17-1.91-1.17-3.15l-0.05-0.68c-2.04,1.7-4.33,3.02-6.85,3.96C220.18,69.33,217.49,69.81,214.64,69.81z M214.64,61.16
		c2.14,0,4.11-0.4,5.93-1.19c1.81-0.79,3.39-1.88,4.74-3.25c1.34-1.37,2.4-2.98,3.16-4.8c0.76-1.83,1.14-3.78,1.14-5.85
		s-0.38-4.02-1.14-5.85c-0.76-1.83-1.81-3.42-3.16-4.78c-1.35-1.36-2.92-2.43-4.74-3.23c-1.82-0.79-3.79-1.19-5.93-1.19
		c-2.11,0-4.07,0.4-5.88,1.19c-1.81,0.79-3.39,1.87-4.71,3.23c-1.33,1.36-2.38,2.95-3.16,4.78c-0.78,1.83-1.17,3.78-1.17,5.85
		s0.39,4.02,1.17,5.85c0.78,1.83,1.83,3.43,3.16,4.8c1.33,1.37,2.9,2.46,4.71,3.25C210.58,60.76,212.53,61.16,214.64,61.16z"/>
	<path class="st0" d="M268.54,49.69h-6.03h-2.77c-1.94,0-3.74-0.38-5.4-1.14c-1.65-0.76-3.09-1.79-4.3-3.07
		c-1.22-1.28-2.16-2.77-2.84-4.45s-1.02-3.47-1.02-5.36c0-1.85,0.36-3.59,1.07-5.21c0.71-1.62,1.68-3.04,2.89-4.26
		c1.22-1.22,2.65-2.17,4.3-2.87c1.65-0.7,3.42-1.05,5.3-1.05h14.61c1.17,0,2.17,0.36,3.01,1.08c0.84,0.72,1.26,1.76,1.26,3.13
		c0,0.62-0.11,1.2-0.32,1.74c-0.21,0.54-0.5,1.01-0.87,1.42c-0.37,0.41-0.8,0.73-1.29,0.95c-0.49,0.23-1.01,0.34-1.56,0.34h-0.24
		h-14.56c-0.71,0-1.37,0.14-1.97,0.41c-0.6,0.28-1.13,0.65-1.58,1.12c-0.45,0.47-0.81,1-1.07,1.6c-0.26,0.6-0.39,1.24-0.39,1.92
		c0,0.75,0.13,1.43,0.39,2.04c0.26,0.62,0.62,1.14,1.09,1.58c0.47,0.44,1.01,0.79,1.61,1.04c0.6,0.26,1.24,0.39,1.92,0.39h2.82h6.96
		c1.98,0,3.81,0.38,5.5,1.14c1.69,0.76,3.14,1.79,4.36,3.09c1.22,1.3,2.17,2.8,2.87,4.52c0.7,1.72,1.05,3.52,1.05,5.39
		c0,1.91-0.35,3.72-1.05,5.42c-0.7,1.7-1.67,3.19-2.91,4.47c-1.24,1.28-2.71,2.29-4.42,3.04c-1.71,0.75-3.55,1.12-5.52,1.12h-16.91
		c-1.13,0-2.07-0.41-2.82-1.22c-0.75-0.81-1.12-1.86-1.12-3.16c0-1.3,0.37-2.32,1.12-3.06c0.75-0.74,1.68-1.12,2.82-1.12h16.18
		c0.71,0,1.43-0.12,2.14-0.36c0.71-0.24,1.36-0.61,1.94-1.09c0.58-0.49,1.05-1.08,1.41-1.77c0.36-0.7,0.53-1.51,0.53-2.45
		c0-0.91-0.17-1.68-0.51-2.33c-0.34-0.65-0.79-1.18-1.36-1.6c-0.57-0.42-1.21-0.75-1.92-0.97c-0.71-0.23-1.44-0.36-2.19-0.39h-0.1
		H268.54z"/>
	<path class="st0" d="M327.1,45.46v-0.19c0-1.98-0.31-3.84-0.92-5.59c-0.62-1.75-1.49-3.28-2.62-4.59c-1.13-1.31-2.5-2.34-4.11-3.09
		c-1.6-0.75-3.39-1.12-5.37-1.12c-1.98,0-3.88,0.36-5.71,1.07c-1.83,0.71-3.46,1.7-4.88,2.96c-1.43,1.26-2.57,2.75-3.43,4.47
		c-0.86,1.72-1.29,3.56-1.29,5.54v20.02c0,1.2-0.41,2.21-1.24,3.04c-0.83,0.83-1.84,1.24-3.04,1.24c-1.23,0-2.26-0.41-3.09-1.24
		c-0.83-0.83-1.24-1.84-1.24-3.04V14.61c0-0.62,0.11-1.19,0.34-1.73c0.23-0.53,0.53-1,0.92-1.38s0.85-0.7,1.38-0.92
		c0.53-0.23,1.09-0.34,1.68-0.34c0.58,0,1.13,0.11,1.65,0.34c0.52,0.23,0.97,0.53,1.36,0.92s0.7,0.85,0.92,1.38
		c0.23,0.53,0.34,1.11,0.34,1.73l0.01,15.3c1.95-2.33,4.22-4.18,6.84-5.54c2.61-1.36,5.44-2.04,8.49-2.04c3.15,0,6.05,0.6,8.71,1.8
		c2.66,1.2,4.94,2.84,6.84,4.91c1.9,2.07,3.38,4.5,4.45,7.29c1.07,2.79,1.61,5.75,1.61,8.89v0.24v19.59c0,1.23-0.43,2.24-1.27,3.04
		c-0.85,0.79-1.87,1.19-3.08,1.19c-1.17,0-2.18-0.4-3.01-1.19c-0.83-0.79-1.25-1.81-1.25-3.04V45.46z"/>
	<g>
		<path class="st0" d="M126.35,41.2c-0.68-0.68-1.45-1.19-2.31-1.53c-0.86-0.34-1.73-0.51-2.61-0.51s-1.75,0.17-2.6,0.51
			c-0.85,0.34-1.61,0.84-2.29,1.52c-0.67,0.67-1.18,1.43-1.51,2.29c-0.34,0.85-0.51,1.72-0.51,2.61c-0.01,0.89,0.16,1.76,0.5,2.62
			c0.34,0.86,0.85,1.62,1.53,2.31c0.68,0.68,1.45,1.19,2.31,1.53c0.86,0.34,1.73,0.51,2.62,0.5c0.89-0.01,1.75-0.18,2.6-0.52
			c0.85-0.34,1.61-0.85,2.28-1.52c0.67-0.67,1.18-1.43,1.52-2.28c0.34-0.85,0.51-1.71,0.51-2.59c0-0.88-0.17-1.75-0.51-2.61
			C127.54,42.65,127.03,41.88,126.35,41.2z"/>
		<path class="st0" d="M143.18,36.87c-1.23-2.88-2.91-5.4-5.05-7.55c-2.13-2.15-4.65-3.86-7.53-5.1c-2.88-1.25-5.97-1.88-9.27-1.88
			c-3.27,0-6.34,0.63-9.2,1.88c-2.87,1.24-5.38,2.95-7.53,5.1c-2.15,2.15-3.85,4.67-5.1,7.55c-1.25,2.88-1.88,5.96-1.88,9.23
			c0,3.27,0.63,6.35,1.88,9.23c1.25,2.88,2.95,5.4,5.1,7.53c2.15,2.14,4.66,3.83,7.53,5.08c2.87,1.25,5.93,1.87,9.2,1.87
			c3.3,0,6.4-0.62,9.27-1.87c2.88-1.25,5.4-2.94,7.53-5.08c2.14-2.13,3.82-4.65,5.05-7.53c1.23-2.88,1.85-5.95,1.85-9.23
			C145.03,42.84,144.41,39.76,143.18,36.87z M131.55,50.17c-0.54,1.34-1.34,2.54-2.4,3.6c-1.06,1.06-2.26,1.87-3.6,2.4
			c-1.34,0.54-2.7,0.81-4.09,0.81c-1.39,0-2.75-0.26-4.1-0.79s-2.54-1.33-3.61-2.39c-0.96-0.96-1.69-2.01-2.21-3.15
			c-0.52-1.14-0.83-2.34-0.93-3.58l-3.99,3.99c-0.4,0.4-0.87,0.62-1.4,0.65c-0.53,0.04-1-0.15-1.42-0.57
			c-0.39-0.39-0.59-0.87-0.59-1.43c0-0.56,0.2-1.04,0.61-1.45l9.91-9.91c1.06-1.06,2.26-1.86,3.61-2.39c1.34-0.53,2.71-0.8,4.11-0.8
			c1.4,0,2.77,0.27,4.11,0.8c1.34,0.53,2.54,1.33,3.61,2.39s1.86,2.27,2.39,3.61c0.53,1.34,0.79,2.71,0.79,4.11
			C132.36,47.47,132.09,48.84,131.55,50.17z"/>
	</g>
</g>
</svg>
